<svg class="svg-icon" style="width: 1em; height: 1em;vertical-align: middle;fill: currentColor;overflow: hidden;" viewBox="0 0 1024 1024" version="1.1" xmlns="http://www.w3.org/2000/svg"><path d="M167.664 151.92l0 0.064L840.32 151.984 840.32 151.92c8.688-0.192 15.664-7.216 15.664-15.936s-6.992-15.744-15.664-15.936L840.32 119.984 167.664 119.984l0 0.064C158.992 120.24 152 127.264 152 135.984S158.992 151.728 167.664 151.92zM834.624 484.704 552.672 217.28c-32.352-35.36-65.632-35.856-100.48-0.992L167.856 483.824c-10.384 6.544-17.328 18.016-17.328 31.184 0 20.4 16.544 36.944 36.944 36.944l156.432 0 0 275.36c0 40.8 8.688 76.96 49.488 76.96l214.192 0c40.8 0 55.648-26.48 55.648-67.28L663.232 551.952l157.44 0 0.096-0.256c18.528-1.296 33.2-16.592 33.2-35.456C853.952 502.48 846.064 490.656 834.624 484.704zM631.84 519.984l0 321.504c0 26.736-14.096 30.336-27.92 30.336L397.92 871.824c-18.912 0-21.728-25.072-21.728-40.016L376.192 519.984 184.816 519.984l17.52-22.624-0.176-0.416L477.264 241.44c7.088-7.024 16.432-10.88 26.368-10.88 9.952 0 19.296 3.84 26.336 10.816l291.488 276.896 0.88 1.712L631.84 519.984z"  /></svg>